<svg xmlns="http://www.w3.org/2000/svg" viewBox="0 0 100 100"><rect width="100" height="100" fill="#E7EDEA"/><rect x="10" y="10" width="80" height="80" rx="22" fill="#C0544A"/><rect x="13.5" y="13.5" width="73" height="73" rx="18.5" fill="none" stroke="#FFFFFF" stroke-width="1.7"/><polygon points="54.1,80.0 55.1,61.6 53.5,60.2 35.3,63.4 37.8,56.6 37.0,54.7 17.1,47.4 21.6,45.3 22.3,43.1 18.5,35.7 28.0,37.4 30.1,36.3 31.3,31.7 38.8,40.1 41.0,39.0 37.4,21.7 43.2,25.0 45.4,24.3 50.0,14.0 54.6,24.3 56.8,25.0 62.6,21.7 59.0,39.0 61.2,40.1 68.7,31.7 69.9,36.3 72.0,37.4 81.5,35.7 77.7,43.1 78.4,45.3 82.9,47.4 63.0,54.7 62.2,56.6 64.7,63.4 46.5,60.2 44.9,61.6 45.9,80.0" fill="#FFFFFF"/><circle cx="77" cy="22.5" r="5" fill="#E0A864"/></svg>