<svg xmlns="http://www.w3.org/2000/svg" viewBox="0 0 100 100"><rect width="100" height="100" fill="#E7EDEA"/><rect x="8" y="8" width="84" height="84" rx="20" fill="#C0544A"/><polygon points="54.5,84.0 55.5,63.9 53.8,62.4 34.0,65.9 36.6,58.5 35.8,56.4 14.2,48.4 19.0,46.2 19.8,43.7 15.7,35.7 26.0,37.6 28.3,36.3 29.6,31.3 37.8,40.5 40.1,39.3 36.2,20.4 42.5,24.0 45.0,23.2 50.0,12.0 55.0,23.2 57.5,24.0 63.8,20.4 59.9,39.3 62.2,40.5 70.4,31.3 71.7,36.3 74.0,37.6 84.3,35.7 80.2,43.7 81.0,46.2 85.8,48.4 64.2,56.4 63.4,58.5 66.0,65.9 46.2,62.4 44.5,63.9 45.5,84.0" fill="#FFFFFF"/></svg>